<?xml version="1.0" encoding="utf-8"?>
<!-- Generator: Adobe Illustrator 16.0.0, SVG Export Plug-In . SVG Version: 6.00 Build 0)  -->
<!DOCTYPE svg PUBLIC "-//W3C//DTD SVG 1.1//EN" "http://www.w3.org/Graphics/SVG/1.1/DTD/svg11.dtd">
<svg version="1.1" id="Layer_1" xmlns="http://www.w3.org/2000/svg" xmlns:xlink="http://www.w3.org/1999/xlink" x="0px" y="0px"
	 width="539.256px" height="83.264px" viewBox="0 0 539.256 83.264" enable-background="new 0 0 539.256 83.264"
	 xml:space="preserve">
<path fill="none" d="M14.164,0.624c11.415,0,19.299,7.836,19.299,18.054v0.104c0,10.219-7.884,18.16-19.299,18.16H0V0.624"/>
<path fill="none" d="M7.993,7.834v21.895h6.171c6.537,0,10.949-4.409,10.949-10.844v-0.104c0-6.433-4.413-10.947-10.949-10.947"/>
<polyline fill="#27A9E1" points="54.727,0.624 54.727,36.941 46.739,36.941 46.739,0.624 "/>
<path fill="#27A9E1" d="M86.771,7.368c-5.811,0-10.429,5.135-10.429,11.31v0.104c0,6.639,4.566,11.516,11,11.516
	c2.906,0,5.499-0.727,7.522-2.179v-5.188h-8.043v-6.899h15.772v15.774c-3.736,3.161-8.872,5.756-15.513,5.756
	c-11.309,0-19.091-7.938-19.091-18.677v-0.104C67.991,8.459,76.034,0,87.03,0"/>
<path fill="#27A9E1" d="M101.299,4.981l-5.034,6.069c-2.803-2.334-5.293-3.683-9.494-3.683"/>
<polyline fill="#27A9E1" points="124.854,0.624 124.854,36.941 116.865,36.941 116.865,0.624 "/>
<polyline fill="#27A9E1" points="155.469,7.989 155.469,36.941 147.482,36.941 147.482,7.989 "/>
<polyline fill="none" points="193.921,0.364 209.487,36.941 201.136,36.941 197.816,28.793 182.459,28.793 179.14,36.941 
	170.991,36.941 186.559,0.364 "/>
<polygon fill="none" points="190.135,9.959 185.312,21.737 194.958,21.737 "/>
<polyline fill="#27A9E1" points="228.71,0.624 228.71,29.675 246.816,29.675 246.816,36.941 220.72,36.941 220.72,0.624 "/>
<polyline fill="none" points="309.517,0.624 309.517,36.941 301.53,36.941 301.53,22.359 286.794,22.359 286.794,36.941 
	278.803,36.941 278.803,0.624 "/>
<polyline fill="none" points="286.794,0.624 286.794,14.995 301.53,14.995 301.53,0.624 "/>
<polyline fill="none" points="343.651,0.364 359.214,36.941 350.865,36.941 347.542,28.793 332.186,28.793 328.868,36.941 
	320.721,36.941 336.288,0.364 "/>
<polygon fill="none" points="339.866,9.959 335.042,21.737 344.689,21.737 "/>
<path fill="none" d="M387.021,0.624c8.564,0,13.699,4.514,13.699,11.985v0.103c0,5.861-3.163,9.544-7.777,11.258l8.87,12.971h-9.338
	l-7.788-11.621h-6.274v11.621h-7.993V0.624"/>
<path fill="none" d="M378.413,7.834v10.428h8.095c3.89,0,6.122-2.072,6.122-5.135v-0.104c0-3.422-2.392-5.188-6.278-5.188"/>
<path fill="none" d="M430.929,0.624c7.419,0,11.984,3.683,11.984,9.39v0.105c0,4.098-2.179,6.379-4.774,7.832
	c4.202,1.608,6.793,4.048,6.793,8.925v0.104c0,6.642-5.39,9.961-13.589,9.961h-17.277V0.624"/>
<path fill="none" d="M421.846,7.626v7.68h7.37c3.526,0,5.759-1.144,5.759-3.838v-0.106c0-2.387-1.867-3.736-5.242-3.736"/>
<path fill="none" d="M437,25.886c0-2.438-1.818-3.939-5.917-3.939h-9.237v7.991h9.497c3.525,0,5.657-1.25,5.657-3.946V25.886z"/>
<path fill="none" d="M475.017,0c11.207,0,19.247,8.354,19.247,18.677v0.104c0,10.322-8.145,18.781-19.347,18.781
	c-11.213,0-19.249-8.352-19.249-18.677v-0.104C455.668,8.459,463.811,0,475.017,0"/>
<path fill="none" d="M474.917,7.368c-6.437,0-10.897,5.085-10.897,11.31v0.104c0,6.225,4.565,11.416,10.997,11.416
	c6.433,0,10.897-5.086,10.897-11.312v-0.104C485.915,12.555,481.349,7.368,474.917,7.368"/>
<path fill="none" d="M523.88,0.624c8.563,0,13.699,4.514,13.699,11.985v0.103c0,5.861-3.166,9.544-7.785,11.258l8.87,12.971h-9.338
	l-7.777-11.621h-6.278v11.621h-7.993V0.624"/>
<path fill="none" d="M515.271,7.834v10.428h8.09c3.895,0,6.125-2.072,6.125-5.135v-0.104c0-3.422-2.387-5.188-6.281-5.188"/>
<line fill="#172B53" x1="537.742" y1="49.266" x2="537.742" y2="81.974"/>
<g>
	<path fill="#27A9E1" d="M14.755,37.673H0.592V1.355h14.164c11.415,0,19.299,7.836,19.299,18.054v0.104
		C34.055,29.732,26.17,37.673,14.755,37.673z M25.705,19.513c0-6.433-4.413-10.947-10.949-10.947H8.584v21.895h6.171
		c6.537,0,10.949-4.409,10.949-10.844V19.513z"/>
	<path fill="#27A9E1" d="M47.331,37.673V1.355h7.988v36.317H47.331z"/>
	<path fill="#27A9E1" d="M87.674,38.294c-11.309,0-19.091-7.938-19.091-18.677v-0.104c0-10.322,8.042-18.781,19.039-18.781
		c6.538,0,10.481,1.764,14.27,4.981l-5.034,6.069C94.054,9.448,91.563,8.1,87.363,8.1c-5.811,0-10.429,5.135-10.429,11.31v0.104
		c0,6.639,4.566,11.516,11,11.516c2.906,0,5.499-0.727,7.522-2.179v-5.188h-8.043v-6.899h15.772v15.774
		C99.451,35.698,94.314,38.294,87.674,38.294z"/>
	<path fill="#27A9E1" d="M117.457,37.673V1.355h7.989v36.317H117.457z"/>
	<path fill="#27A9E1" d="M156.061,8.721v28.952h-7.987V8.721h-11.052V1.355h30.091v7.366H156.061z"/>
	<path fill="#27A9E1" d="M201.728,37.673l-3.319-8.147h-15.357l-3.319,8.147h-8.149L187.15,1.096h7.363l15.566,36.577H201.728z
		 M190.727,10.691l-4.823,11.778h9.646L190.727,10.691z"/>
	<path fill="#27A9E1" d="M221.312,37.673V1.355h7.99v29.052h18.105v7.266H221.312z"/>
	<path fill="#27A9E1" d="M302.122,37.673V23.091h-14.735v14.582h-7.991V1.355h7.991v14.371h14.735V1.355h7.987v36.317H302.122z"/>
	<path fill="#27A9E1" d="M351.457,37.673l-3.322-8.147h-15.356l-3.318,8.147h-8.146l15.566-36.577h7.363l15.563,36.577H351.457z
		 M340.458,10.691l-4.823,11.778h9.646L340.458,10.691z"/>
	<path fill="#27A9E1" d="M393.067,37.673l-7.788-11.621h-6.274v11.621h-7.993V1.355h16.602c8.564,0,13.699,4.514,13.699,11.985
		v0.103c0,5.861-3.163,9.544-7.777,11.258l8.87,12.971H393.067z M393.221,13.754c0-3.422-2.392-5.188-6.278-5.188h-7.938v10.428
		h8.095c3.89,0,6.122-2.072,6.122-5.135V13.754z"/>
	<path fill="#27A9E1" d="M431.935,37.673h-17.277V1.355h16.863c7.419,0,11.984,3.683,11.984,9.39v0.105
		c0,4.098-2.179,6.379-4.774,7.832c4.202,1.608,6.793,4.048,6.793,8.925v0.104C445.524,34.354,440.134,37.673,431.935,37.673z
		 M435.567,12.094c0-2.387-1.867-3.736-5.242-3.736h-7.887v7.68h7.37c3.526,0,5.759-1.144,5.759-3.838V12.094z M437.592,26.618
		c0-2.438-1.818-3.939-5.917-3.939h-9.237v7.991h9.497c3.525,0,5.657-1.25,5.657-3.946V26.618z"/>
	<path fill="#27A9E1" d="M475.509,38.294c-11.213,0-19.249-8.352-19.249-18.677v-0.104c0-10.322,8.143-18.781,19.349-18.781
		c11.207,0,19.247,8.354,19.247,18.677v0.104C494.856,29.835,486.711,38.294,475.509,38.294z M486.506,19.513
		c0-6.226-4.565-11.414-10.997-11.414c-6.437,0-10.897,5.085-10.897,11.31v0.104c0,6.225,4.565,11.416,10.997,11.416
		c6.433,0,10.897-5.086,10.897-11.312V19.513z"/>
	<path fill="#27A9E1" d="M529.918,37.673l-7.777-11.621h-6.278v11.621h-7.993V1.355h16.603c8.563,0,13.699,4.514,13.699,11.985
		v0.103c0,5.861-3.166,9.544-7.785,11.258l8.87,12.971H529.918z M530.078,13.754c0-3.422-2.387-5.188-6.281-5.188h-7.934v10.428
		h8.09c3.895,0,6.125-2.072,6.125-5.135V13.754z"/>
</g>
<g>
	<path fill="#172B53" d="M24.787,55.231h-18.6v8.924h16.5v5.236h-16.5v13.314H0.44V49.999h24.347V55.231z"/>
	<path fill="#172B53" d="M69.731,83.264c-10.048,0-17.056-7.611-17.056-16.861c0-9.258,7.1-16.967,17.147-16.967
		c10.049,0,17.061,7.615,17.061,16.867C86.883,75.557,79.78,83.264,69.731,83.264z M69.731,54.713
		c-6.494,0-11.029,5.189-11.029,11.59c0,6.404,4.629,11.684,11.121,11.684c6.498,0,11.032-5.189,11.032-11.584
		C80.854,59.993,76.226,54.713,69.731,54.713z"/>
	<path fill="#172B53" d="M145.307,68.547c0,9.771-5.516,14.678-14.067,14.678c-8.509,0-13.926-4.906-13.926-14.396v-18.83h5.745
		v18.598c0,6.076,3.133,9.344,8.274,9.344c5.094,0,8.225-3.084,8.225-9.111v-18.83h5.75V68.547z"/>
	<path fill="#172B53" d="M200.393,49.999h5.653v32.707h-4.816l-18.035-23.27v23.27h-5.656V49.999h5.327l17.526,22.619V49.999z"/>
	<path fill="#172B53" d="M250.861,82.706h-12.197V49.999h12.197c10.281,0,17.383,7.053,17.383,16.305
		C268.244,75.557,261.142,82.706,250.861,82.706z M250.861,55.231h-6.451v22.24h6.451c6.871,0,11.357-4.623,11.357-11.068
		C262.218,59.952,257.731,55.231,250.861,55.231z"/>
	<path fill="#172B53" d="M328.462,82.706h-6.073l-3.317-7.895h-15.469l-3.366,7.895h-5.886l14.392-32.939h5.327L328.462,82.706z
		 M311.314,56.631l-5.608,13.086h11.263L311.314,56.631z"/>
	<path fill="#172B53" d="M367.758,82.706h-5.797V55.325H351.59v-5.326h26.543v5.326h-10.375V82.706z"/>
	<path fill="#172B53" d="M413.576,49.999v32.707h-5.751V49.999H413.576z"/>
	<path fill="#172B53" d="M461.687,83.264c-10.048,0-17.057-7.611-17.057-16.861c0-9.258,7.104-16.967,17.148-16.967
		c10.047,0,17.062,7.615,17.062,16.867C478.841,75.557,471.737,83.264,461.687,83.264z M461.687,54.713
		c-6.492,0-11.028,5.189-11.028,11.59c0,6.404,4.628,11.684,11.12,11.684c6.496,0,11.034-5.189,11.034-11.584
		C472.813,59.993,468.184,54.713,461.687,54.713z"/>
	<path fill="#172B53" d="M532.679,49.999h5.654v32.707h-4.816l-18.039-23.27v23.27h-5.652V49.999h5.326l17.527,22.619V49.999z"/>
</g>
</svg>
